<svg width="24" height="25" viewBox="0 0 24 25" fill="none" xmlns="http://www.w3.org/2000/svg">
<path fill-rule="evenodd" clip-rule="evenodd" d="M5.29289 5.32805C5.68342 4.93753 6.31658 4.93753 6.70711 5.32805L12 10.6209L17.2929 5.32805C17.6834 4.93753 18.3166 4.93753 18.7071 5.32805C19.0976 5.71857 19.0976 6.35174 18.7071 6.74226L13.4142 12.0352L18.7071 17.328C19.0976 17.7186 19.0976 18.3517 18.7071 18.7423C18.3166 19.1328 17.6834 19.1328 17.2929 18.7423L12 13.4494L6.70711 18.7423C6.31658 19.1328 5.68342 19.1328 5.29289 18.7423C4.90237 18.3517 4.90237 17.7186 5.29289 17.328L10.5858 12.0352L5.29289 6.74226C4.90237 6.35174 4.90237 5.71857 5.29289 5.32805Z" fill="#777E91"/>
</svg>
