<svg width="162" height="125" viewBox="0 0 162 125" fill="none" xmlns="http://www.w3.org/2000/svg">
<g filter="url(#filter0_f)">
<ellipse cx="81" cy="71.5" rx="61" ry="33.5" fill="url(#paint0_linear)" fill-opacity="0.45"/>
</g>
<g clip-path="url(#clip0)">
<g opacity="0.8">
<path opacity="0.8" d="M64.6991 53.8854L48.0537 44.2046V24.6387L64.6991 34.3195V53.8854Z" fill="url(#paint1_linear)"/>
<path opacity="0.8" d="M64.6571 53.954L48.0117 44.2732L47.9795 44.2517V24.6319L48.1084 24.5566L64.7645 34.2374V34.3127V53.9324L64.6571 53.954ZM48.1298 44.1979L64.6142 53.728V34.3665L48.1298 24.8363V44.1979Z" fill="white"/>
</g>
<g opacity="0.8">
<path opacity="0.8" d="M64.6979 54.0501L47.7411 63.7309L31.0957 54.0501L48.0525 44.2402L64.6979 54.0501Z" fill="url(#paint2_linear)"/>
<path opacity="0.8" d="M47.785 63.7544H47.6991L31.043 54.0736V53.923L47.9783 44.1777H48.0642L64.7096 53.9876V54.1274L47.785 63.7544ZM31.2578 54.0736L47.7421 63.6038L64.5271 54.0736L48.0535 44.3928L31.2578 54.0736Z" fill="white"/>
</g>
<g opacity="0.8">
<path opacity="0.8" d="M47.7411 63.6764L31.0957 53.9956V34.4297L47.7411 44.0567V63.6764Z" fill="url(#paint3_linear)"/>
<path opacity="0.8" d="M47.6991 63.745L31.043 54.0642V53.9889V34.423L31.1718 34.3477L47.828 44.0284V44.1037V63.7234L47.6991 63.745ZM31.1718 53.9889L47.6561 63.5191V44.1037L31.1718 34.5735V53.9889Z" fill="white"/>
</g>
<g opacity="0.8">
<path opacity="0.8" d="M64.6961 54.0535L47.7393 63.7343V44.0716L64.6961 34.2617V54.0535Z" fill="url(#paint4_linear)"/>
<path opacity="0.8" d="M47.7832 63.7491L47.6543 63.6738V44.0648V43.9895L64.6111 34.1797L64.74 34.255V54.0468V54.1221L47.7832 63.7491ZM47.7832 44.1079V63.534L64.5682 54.0038V34.3948L47.7832 44.1079Z" fill="white"/>
</g>
<g opacity="0.8">
<path opacity="0.8" d="M64.697 34.2589L47.7401 44.0688L31.0947 34.388L48.0516 24.5781L64.697 34.2589Z" fill="url(#paint5_linear)"/>
<path opacity="0.8" d="M47.6991 44.1333L31.043 34.4525V34.3127L47.9783 24.5566H48.0642L64.7096 34.2374V34.388L47.7528 44.1871L47.6991 44.1333ZM31.2578 34.4525L47.7421 43.972L64.5271 34.2912L48.0535 24.761L31.2578 34.4525Z" fill="white"/>
</g>
<g opacity="0.8">
<path opacity="0.8" d="M98.3007 53.8873L81.6553 44.2066V24.6406L98.3007 34.3214V53.8873Z" fill="url(#paint6_linear)"/>
<path opacity="0.8" d="M98.2577 53.954L81.6123 44.2732V44.1979V24.6319L81.7412 24.5566L98.3866 34.2374V34.3127V53.9324L98.2577 53.954ZM81.7412 44.1979L98.2147 53.728V34.3665L81.7412 24.8363V44.1979Z" fill="white"/>
</g>
<g opacity="0.8">
<path opacity="0.8" d="M98.2995 54.052L81.3427 63.7328L64.6973 54.052L81.6541 44.2422L98.2995 54.052Z" fill="url(#paint7_linear)"/>
<path opacity="0.8" d="M81.3866 63.7477H81.2685L64.623 54.0669V53.9163L81.5799 44.1172H81.6658L98.3112 53.927V54.0669L81.3866 63.7477ZM64.8701 54.0669L81.3436 63.5971L98.1394 54.0669L81.6551 44.3861L64.8701 54.0669Z" fill="white"/>
</g>
<g opacity="0.8">
<path opacity="0.8" d="M81.3427 63.6783L64.6973 53.9976V34.4316L81.3427 44.0586V63.6783Z" fill="url(#paint8_linear)"/>
<path opacity="0.8" d="M81.2685 63.7469L64.623 54.0661V53.9908V34.4249L64.7519 34.3496L81.3973 44.0304V44.1057V63.7254L81.2685 63.7469ZM64.7519 53.9908L81.2255 63.521V44.1057L64.7519 34.5755V53.9908Z" fill="white"/>
</g>
<g opacity="0.8">
<path opacity="0.8" d="M98.2976 54.0535L81.3408 63.7343V44.0716L98.2976 34.2617V54.0535Z" fill="url(#paint9_linear)"/>
<path opacity="0.8" d="M81.3847 63.7491L81.2559 63.6738V44.0648V43.9895L98.2127 34.1797L98.3416 34.255V54.0468V54.1221L81.3847 63.7491ZM81.3847 44.1079V63.534L98.1697 54.0038V34.3948L81.3847 44.1079Z" fill="white"/>
</g>
<g opacity="0.8">
<path opacity="0.8" d="M98.2995 34.2589L81.3427 44.0688L64.6973 34.388L81.6541 24.5781L98.2995 34.2589Z" fill="url(#paint10_linear)"/>
<path opacity="0.8" d="M81.2685 44.1266L64.623 34.4458V34.306L81.5799 24.4961H81.6658L98.3112 34.1769V34.3275L81.3544 44.1266H81.2685ZM64.8378 34.4458L81.3114 43.9652L98.1072 34.2844L81.6228 24.7542L64.8378 34.4458Z" fill="white"/>
</g>
<g opacity="0.8">
<path opacity="0.8" d="M131.902 53.8873L115.257 44.2066V24.6406L131.902 34.3214V53.8873Z" fill="url(#paint11_linear)"/>
<path opacity="0.8" d="M131.859 53.954L115.214 44.2732V44.1979V24.6319L115.343 24.5566L131.988 34.2374V34.3127V53.9324L131.859 53.954ZM115.343 44.1979L131.816 53.728V34.3665L115.343 24.8363V44.1979Z" fill="white"/>
</g>
<g opacity="0.8">
<path opacity="0.8" d="M131.901 54.052L114.944 63.7328L98.2988 54.052L115.256 44.2422L131.901 54.052Z" fill="url(#paint12_linear)"/>
<path opacity="0.8" d="M114.987 63.7477H114.901L98.2559 54.0669V53.9163L115.213 44.1172H115.299L131.955 53.927V54.0669L114.987 63.7477ZM98.4706 54.0669L114.944 63.5971L131.74 54.0669L115.256 44.3861L98.4706 54.0669Z" fill="white"/>
</g>
<g opacity="0.8">
<path opacity="0.8" d="M114.944 63.6803L98.2988 53.9995V34.4336L114.944 44.0606V63.6803Z" fill="url(#paint13_linear)"/>
<path opacity="0.8" d="M114.901 63.7469L98.2559 54.0661V53.9908V34.4249L98.3847 34.3496L115.03 44.0304V44.1057V63.7254L114.901 63.7469ZM98.3847 53.9908L114.858 63.521V44.1057L98.3847 34.5755V53.9908Z" fill="white"/>
</g>
<g opacity="0.8">
<path opacity="0.8" d="M131.899 54.0535L114.942 63.7343V44.0716L131.899 34.2617V54.0535Z" fill="url(#paint14_linear)"/>
<path opacity="0.8" d="M114.986 63.7491L114.857 63.6738V44.0648V43.9895L131.825 34.1797L131.954 34.255V54.0468L131.9 54.1221L114.986 63.7491ZM114.986 44.1079V63.534L131.782 54.0038V34.3948L114.986 44.1079Z" fill="white"/>
</g>
<g opacity="0.8">
<path opacity="0.8" d="M131.901 34.2608L114.944 44.0707L98.2988 34.3899L115.256 24.5801L131.901 34.2608Z" fill="url(#paint15_linear)"/>
<path opacity="0.8" d="M114.901 44.1266L98.2559 34.4458V34.306L115.213 24.4961H115.299L131.944 34.1769V34.3275L114.987 44.1266H114.901ZM98.4706 34.4458L114.944 43.9652L131.74 34.2844L115.256 24.7542L98.4706 34.4458Z" fill="white"/>
</g>
<g opacity="0.8">
<path opacity="0.8" d="M81.3427 83.1295L64.6973 73.4487V53.8828L81.3427 63.5636V83.1295Z" fill="url(#paint16_linear)"/>
<path opacity="0.8" d="M81.2685 83.1981L64.6123 73.5173V73.442V53.8761L64.7304 53.8008L81.3866 63.4816V63.5569V83.1766L81.2685 83.1981ZM64.7412 73.442L81.2255 82.9722V63.5569L64.7412 54.0267V73.442Z" fill="white"/>
</g>
<g opacity="0.8">
<path opacity="0.8" d="M81.3405 83.2981L64.3837 92.9789L47.7383 83.2981L64.6951 73.4883L81.3405 83.2981Z" fill="url(#paint17_linear)"/>
<path opacity="0.8" d="M64.4276 92.9937H64.3417L47.6855 83.313V83.1731L64.6531 73.3633H64.739L81.3844 83.1731V83.313L64.4276 92.9937ZM47.9003 83.313L64.3846 92.8431L81.1696 83.313L64.6961 73.6322L47.9003 83.313Z" fill="white"/>
</g>
<g opacity="0.8">
<path opacity="0.8" d="M64.3837 92.9225L47.7383 83.2417V63.6758L64.3837 73.3028V92.9225Z" fill="url(#paint18_linear)"/>
<path opacity="0.8" d="M64.3417 92.9998L47.6855 83.3191V83.2438V63.6778L47.8144 63.6133L64.4706 73.2941V73.3586V92.9783L64.3417 92.9998ZM47.8144 83.2545L64.2987 92.7739V73.3586L47.8144 63.8284V83.2545Z" fill="white"/>
</g>
<g opacity="0.8">
<path opacity="0.8" d="M81.3396 83.3084L64.3828 92.9892V73.3157L81.3396 63.5059V83.3084Z" fill="url(#paint19_linear)"/>
<path opacity="0.8" d="M64.4267 93.004L64.2979 92.9287V73.309V73.2337L81.2547 63.4238L81.3836 63.4991V83.3017V83.3662L64.4267 93.004ZM64.4267 73.352V92.7781L81.2117 83.2479V63.6497L64.4267 73.352Z" fill="white"/>
</g>
<g opacity="0.8">
<path opacity="0.8" d="M81.3405 63.503L64.3837 73.3129L47.7383 63.6321L64.6951 53.8223L81.3405 63.503Z" fill="url(#paint20_linear)"/>
<path opacity="0.8" d="M64.4276 73.3815H64.3417L47.6855 63.7007V63.5501L64.6531 53.7402H64.739L81.3844 63.421V63.5716L64.4276 73.3815ZM47.9003 63.7007L64.3846 73.2309L81.1696 63.5501L64.6961 54.0199L47.9003 63.7007Z" fill="white"/>
</g>
<g opacity="0.8">
<path opacity="0.8" d="M114.944 83.1315L98.2988 73.4507V53.8848L114.944 63.5655V83.1315Z" fill="url(#paint21_linear)"/>
<path opacity="0.8" d="M114.901 83.1981L98.2559 73.5173V73.442V53.8761L98.3847 53.8008L115.03 63.4816V63.5569V83.1766L114.901 83.1981ZM98.3847 73.442L114.858 82.9722V63.5569L98.3847 54.0267V73.442Z" fill="white"/>
</g>
<g opacity="0.8">
<path opacity="0.8" d="M114.943 83.2981L97.9862 92.9789L81.3408 83.2981L98.2977 73.4883L114.943 83.2981Z" fill="url(#paint22_linear)"/>
<path opacity="0.8" d="M98.0292 92.9937H97.9432L81.2979 83.313V83.1731L98.2547 73.3633H98.3406L114.986 83.1731V83.313L98.0292 92.9937ZM81.5019 83.313L97.9862 92.8431L114.771 83.313L98.2976 73.6322L81.5019 83.313Z" fill="white"/>
</g>
<g opacity="0.8">
<path opacity="0.8" d="M97.9862 92.9244L81.3408 83.2437V63.6777L97.9862 73.3047V92.9244Z" fill="url(#paint23_linear)"/>
<path opacity="0.8" d="M97.9432 92.9998L81.2979 83.3191V83.2438V63.6778L81.4267 63.6133L98.0721 73.2941V73.3586V92.9783L97.9432 92.9998ZM81.4267 83.2545L97.9003 92.7739V73.3586L81.4267 63.8284V83.2545Z" fill="white"/>
</g>
<g opacity="0.8">
<path opacity="0.8" d="M114.941 83.3084L97.9844 92.9892V73.3157L114.941 63.5059V83.3084Z" fill="url(#paint24_linear)"/>
<path opacity="0.8" d="M98.0283 93.004L97.8994 92.9287V73.309V73.2337L114.856 63.4238L114.985 63.4991V83.3017V83.3662L98.0283 93.004ZM98.0283 73.352V92.7781L114.813 83.2479V63.6497L98.0283 73.352Z" fill="white"/>
</g>
<g opacity="0.8">
<path opacity="0.8" d="M114.943 63.505L97.9862 73.3148L81.3408 63.6341L98.2977 53.8242L114.943 63.505Z" fill="url(#paint25_linear)"/>
<path opacity="0.8" d="M98.0292 73.3815H97.9432L81.2979 63.7007V63.5501L98.2547 53.7402H98.3406L114.986 63.421V63.5716L98.0292 73.3815ZM81.5019 63.7007L97.9862 73.2309L114.771 63.5501L98.2976 54.0199L81.5019 63.7007Z" fill="white"/>
</g>
<path d="M81.9168 20.9303C82.0678 21.0321 82.193 21.1677 82.2825 21.3264C82.372 21.4852 82.4233 21.6626 82.4323 21.8446C82.4323 22.1781 82.2068 22.3179 81.9168 22.1566C81.7641 22.0567 81.6375 21.9215 81.5478 21.7624C81.4581 21.6033 81.4079 21.4249 81.4014 21.2423C81.4014 20.9088 81.6269 20.769 81.9168 20.9303Z" fill="white"/>
<path d="M81.9168 23.7904C82.0688 23.8886 82.1949 24.022 82.2847 24.1792C82.3744 24.3365 82.425 24.513 82.4323 24.694C82.4323 25.0382 82.2068 25.178 81.9168 25.0059C81.7649 24.9078 81.6387 24.7744 81.549 24.6172C81.4593 24.4599 81.4087 24.2833 81.4014 24.1024C81.4014 23.7582 81.6269 23.6183 81.9168 23.7904Z" fill="white"/>
<path d="M81.9168 26.6201C82.0678 26.7219 82.193 26.8576 82.2825 27.0163C82.372 27.175 82.4233 27.3524 82.4323 27.5344C82.4323 27.8679 82.2068 28.0077 81.9168 27.8464C81.7641 27.7465 81.6375 27.6113 81.5478 27.4522C81.4581 27.2931 81.4079 27.1147 81.4014 26.9321C81.4014 26.6201 81.6269 26.4588 81.9168 26.6201Z" fill="white"/>
<path d="M81.9168 29.4838C82.0688 29.582 82.1949 29.7153 82.2847 29.8726C82.3744 30.0298 82.425 30.2064 82.4323 30.3874C82.4323 30.7316 82.2068 30.8714 81.9168 30.6993C81.7649 30.6011 81.6387 30.4678 81.549 30.3105C81.4593 30.1533 81.4087 29.9767 81.4014 29.7958C81.4014 29.4515 81.6269 29.3117 81.9168 29.4838Z" fill="white"/>
<path d="M79.118 19.3588C79.27 19.457 79.3961 19.5903 79.4858 19.7476C79.5756 19.9048 79.6262 20.0814 79.6335 20.2624C79.6335 20.6066 79.408 20.7356 79.118 20.5743C78.9661 20.4761 78.8399 20.3428 78.7502 20.1855C78.6605 20.0283 78.6098 19.8517 78.6025 19.6708C78.6455 19.3265 78.871 19.1867 79.118 19.3588Z" fill="white"/>
<path d="M76.413 17.7645C76.5649 17.8627 76.6911 17.996 76.7808 18.1532C76.8705 18.3105 76.9211 18.487 76.9284 18.668C76.9284 19.0122 76.7029 19.152 76.413 18.9799C76.2535 18.8767 76.1227 18.7349 76.0326 18.5675C75.9425 18.4002 75.896 18.2128 75.8975 18.0226C75.8975 17.7322 76.123 17.5924 76.413 17.7645Z" fill="white"/>
<path d="M73.6649 16.1627C73.8177 16.2626 73.9442 16.3977 74.034 16.5569C74.1237 16.716 74.1739 16.8944 74.1804 17.077C74.1804 17.4104 73.9548 17.5503 73.6649 17.3782C73.5129 17.28 73.3868 17.1467 73.2971 16.9894C73.2073 16.8322 73.1567 16.6556 73.1494 16.4746C73.1494 16.1304 73.3749 16.0013 73.6649 16.1627Z" fill="white"/>
<path d="M70.9168 14.5827C71.069 14.6832 71.1951 14.8186 71.2847 14.9775C71.3744 15.1365 71.425 15.3146 71.4323 15.497C71.4323 15.8304 71.2068 15.9703 70.9168 15.8089C70.7659 15.7071 70.6407 15.5715 70.5512 15.4128C70.4617 15.2541 70.4104 15.0767 70.4014 14.8946C70.4014 14.5612 70.6269 14.4213 70.9168 14.5827Z" fill="white"/>
<path d="M68.1688 12.987C68.3197 13.0888 68.4449 13.2244 68.5344 13.3831C68.6239 13.5418 68.6752 13.7192 68.6842 13.9013C68.6842 14.2347 68.4587 14.3746 68.1688 14.2132C68.016 14.1133 67.8894 13.9782 67.7997 13.819C67.71 13.6599 67.6598 13.4815 67.6533 13.2989C67.6533 12.9655 67.8788 12.8256 68.1688 12.987Z" fill="white"/>
<path d="M68.7602 8.94398L63.8203 6.09352V3.94225C63.8203 2.32878 64.8942 1.67264 66.2902 2.45785C67.0076 2.93323 67.6044 3.56967 68.0332 4.31658C68.462 5.06348 68.7109 5.90026 68.7602 6.76042V8.94398ZM70.6288 10.0196L70.414 9.89054V7.73927C70.34 6.29213 69.9285 4.8825 69.2123 3.62347C68.4962 2.36445 67.4954 1.29106 66.2902 0.489434C64.0136 -0.822849 62.1665 0.285057 62.1665 2.96341V5.10394L61.9409 4.97486C61.114 4.49082 60.4375 4.78125 60.4375 5.6095V12.0633C60.624 13.9545 61.2506 15.7756 62.2671 17.3802C63.2835 18.9849 64.6615 20.3285 66.2902 21.3031C69.5119 23.1747 72.1322 22.0668 72.1322 18.8291V12.3753C72.0803 11.8944 71.9174 11.4323 71.6565 11.0253C71.3956 10.6184 71.0437 10.2777 70.6288 10.0304V10.0196Z" fill="#13263D"/>
<path d="M67.9741 9.21136L63.0341 6.36092V4.20963C63.0341 2.60692 64.108 1.94003 65.5041 2.72525C66.2215 3.20062 66.8183 3.83705 67.2471 4.58396C67.6759 5.33086 67.9248 6.16766 67.9741 7.02782V9.21136ZM69.8426 10.287L69.6279 10.1579V8.00665C69.5548 6.56079 69.1435 5.15235 68.4272 3.89493C67.7109 2.6375 66.7096 1.56626 65.5041 0.767575C63.2274 -0.555464 61.3803 0.563199 61.3803 3.24155V5.39284L61.1548 5.26375C60.3279 4.77971 59.6514 5.07013 59.6514 5.89838V12.3522C59.8362 14.2439 60.4621 16.0656 61.4788 17.6705C62.4954 19.2754 63.8742 20.6187 65.5041 21.592C68.7258 23.4636 71.3461 22.3557 71.3461 19.118V12.6642C71.2949 12.1802 71.1325 11.7148 70.8717 11.3042C70.6109 10.8936 70.2586 10.5492 69.8426 10.2978V10.287Z" fill="#13263D"/>
<path d="M67.1772 9.49084L62.248 6.62962V4.47834C62.248 2.87564 63.3219 2.20873 64.7072 2.99395C65.4258 3.46809 66.0235 4.10422 66.4524 4.85139C66.8814 5.59855 67.1296 6.43597 67.1772 7.29652V9.49084ZM69.0565 10.5665L68.8417 10.4481V8.29688C68.7691 6.84967 68.3569 5.44 67.6386 4.18223C66.9202 2.92447 65.9159 1.85403 64.7072 1.05779C62.4413 -0.254491 60.5942 0.853425 60.5942 3.53177V5.68307L60.3687 5.55398C59.5418 5.0807 58.8652 5.36036 58.8652 6.19936V12.6532C59.0514 14.5446 59.6767 16.3662 60.691 17.9724C61.7054 19.5786 63.0808 20.9249 64.7072 21.9037C67.9289 23.7646 70.56 22.6567 70.56 19.419V12.9652C70.5136 12.4756 70.3535 12.0036 70.0924 11.5871C69.8313 11.1706 69.4766 10.8211 69.0565 10.5665Z" fill="#13263D"/>
<path d="M68.8432 14.3488L60.5957 9.58367V3.57084C60.5957 0.892488 62.4428 -0.215429 64.7087 1.09685C65.9174 1.89309 66.9217 2.96352 67.6401 4.22128C68.3584 5.47905 68.7706 6.88872 68.8432 8.33592V14.3488ZM62.2495 8.58332L67.1787 11.4445V7.37861C67.1311 6.51806 66.8829 5.68064 66.4539 4.93347C66.025 4.18631 65.4273 3.55017 64.7087 3.07604C63.3556 2.29082 62.2495 2.95772 62.2495 4.56043V8.58332Z" fill="url(#paint26_linear)"/>
<path d="M64.7072 21.8531C63.0808 20.8743 61.7054 19.528 60.691 17.9218C59.6767 16.3156 59.0514 14.494 58.8652 12.6026V6.14876C58.8652 5.30976 59.5418 5.07312 60.3687 5.50338L69.0565 10.5266C69.4739 10.7791 69.8269 11.1253 70.0878 11.5378C70.3487 11.9503 70.5104 12.418 70.56 12.9038V19.3576C70.5278 22.6061 67.9397 23.714 64.7072 21.8531Z" fill="url(#paint27_linear)"/>
<path d="M66.2286 14.0832C66.2002 13.5307 66.0426 12.9927 65.7684 12.5125C65.4941 12.0323 65.111 11.6234 64.6499 11.3188C63.7908 10.824 63.082 11.2435 63.082 12.2654C63.1337 13.1543 63.517 13.9912 64.1559 14.6103L63.2431 17.1165L64.6714 17.9448L66.1104 18.773L65.1976 15.2126C65.842 15.3202 66.2286 14.8899 66.2286 14.0832Z" fill="#13263D"/>
<path d="M47.8661 22.2546C47.7151 22.3563 47.5899 22.492 47.5004 22.6507C47.411 22.8094 47.3596 22.9868 47.3506 23.1689C47.3506 23.5023 47.5761 23.6421 47.8661 23.4808C48.0188 23.3809 48.1454 23.2457 48.2351 23.0866C48.3248 22.9275 48.375 22.7491 48.3815 22.5665C48.3815 22.2331 48.156 22.0932 47.8661 22.2546Z" fill="white"/>
<path d="M47.8661 25.1128C47.7133 25.2126 47.5867 25.3478 47.497 25.5069C47.4073 25.6661 47.3571 25.8444 47.3506 26.0271C47.3506 26.3605 47.5761 26.5004 47.8661 26.339C48.017 26.2372 48.1422 26.1016 48.2317 25.9429C48.3212 25.7842 48.3725 25.6067 48.3815 25.4247C48.3815 25.0913 48.156 24.9407 47.8661 25.1128Z" fill="white"/>
<path d="M47.8661 27.946C47.7151 28.0477 47.5899 28.1834 47.5004 28.3421C47.411 28.5008 47.3596 28.6782 47.3506 28.8603C47.3506 29.1937 47.5761 29.3335 47.8661 29.1722C48.0188 29.0723 48.1454 28.9371 48.2351 28.778C48.3248 28.6189 48.375 28.4405 48.3815 28.2579C48.3815 27.9244 48.156 27.7846 47.8661 27.946Z" fill="white"/>
<path d="M47.8661 30.808C47.7133 30.9079 47.5867 31.0431 47.497 31.2022C47.4073 31.3613 47.3571 31.5397 47.3506 31.7223C47.3506 32.0558 47.5761 32.1956 47.8661 32.0343C48.017 31.9325 48.1422 31.7968 48.2317 31.6381C48.3212 31.4794 48.3725 31.302 48.3815 31.12C48.3815 30.7758 48.156 30.6359 47.8661 30.808Z" fill="white"/>
<path d="M50.6141 20.683C50.464 20.7831 50.3392 20.9169 50.2497 21.0738C50.1602 21.2306 50.1085 21.4062 50.0986 21.5866C50.0986 21.9308 50.3349 22.0706 50.6141 21.8985C50.7661 21.8003 50.8922 21.667 50.9819 21.5097C51.0716 21.3525 51.1223 21.1759 51.1296 20.995C51.1296 20.6508 50.9041 20.5109 50.6141 20.683Z" fill="white"/>
<path d="M53.3407 19.0818C53.1891 19.183 53.0635 19.3185 52.9739 19.4773C52.8844 19.6362 52.8334 19.8139 52.8252 19.9961C52.8252 20.3296 53.0615 20.4694 53.3407 20.2973C53.4926 20.1991 53.6188 20.0658 53.7085 19.9085C53.7982 19.7513 53.8488 19.5747 53.8561 19.3938C53.8776 19.0818 53.6521 18.9097 53.3407 19.0818Z" fill="white"/>
<path d="M56.1102 17.5026C55.9574 17.6025 55.8308 17.7377 55.7411 17.8968C55.6514 18.0559 55.6012 18.2343 55.5947 18.4169C55.5947 18.7503 55.8202 18.8902 56.1102 18.7288C56.2612 18.6271 56.3864 18.4914 56.4758 18.3327C56.5653 18.174 56.6166 17.9966 56.6257 17.8145C56.6257 17.4811 56.4002 17.3413 56.1102 17.5026Z" fill="white"/>
<path d="M58.867 15.8634C58.7172 15.9664 58.5929 16.1023 58.5036 16.2608C58.4142 16.4192 58.3622 16.596 58.3516 16.7777C58.3516 17.1112 58.5878 17.251 58.867 17.0897C59.0206 16.9897 59.1483 16.8547 59.2398 16.6958C59.3313 16.5369 59.3838 16.3585 59.3932 16.1754C59.3932 15.8634 59.157 15.7451 58.867 15.8634Z" fill="white"/>
<path d="M61.6141 14.3112C61.4643 14.4142 61.34 14.5501 61.2506 14.7085C61.1613 14.867 61.1093 15.0438 61.0986 15.2255C61.0986 15.5589 61.3349 15.6988 61.6141 15.5374C61.7669 15.4375 61.8935 15.3024 61.9832 15.1432C62.0729 14.9841 62.1231 14.8057 62.1296 14.6231C62.1296 14.2897 61.9363 14.1499 61.6141 14.3112Z" fill="white"/>
</g>
<defs>
<filter id="filter0_f" x="0" y="18" width="162" height="107" filterUnits="userSpaceOnUse" color-interpolation-filters="sRGB">
<feFlood flood-opacity="0" result="BackgroundImageFix"/>
<feBlend mode="normal" in="SourceGraphic" in2="BackgroundImageFix" result="shape"/>
<feGaussianBlur stdDeviation="10" result="effect1_foregroundBlur"/>
</filter>
<linearGradient id="paint0_linear" x1="81" y1="38" x2="81" y2="105" gradientUnits="userSpaceOnUse">
<stop stop-color="#CC7FED"/>
<stop offset="1" stop-color="#792BFF" stop-opacity="0"/>
</linearGradient>
<linearGradient id="paint1_linear" x1="64.3496" y1="10599.4" x2="41.8165" y2="10590.9" gradientUnits="userSpaceOnUse">
<stop stop-color="#586FED"/>
<stop offset="1" stop-color="#4DEDFF"/>
</linearGradient>
<linearGradient id="paint2_linear" x1="7116.76" y1="-9195.43" x2="7121.4" y2="-9219.45" gradientUnits="userSpaceOnUse">
<stop stop-color="#586FED"/>
<stop offset="1" stop-color="#4DEDFF"/>
</linearGradient>
<linearGradient id="paint3_linear" x1="51.503" y1="70.0229" x2="21.3447" y2="53.072" gradientUnits="userSpaceOnUse">
<stop stop-color="#586FED"/>
<stop offset="1" stop-color="#4DEDFF"/>
</linearGradient>
<linearGradient id="paint4_linear" x1="59.5751" y1="54.8336" x2="48.9757" y2="48.7353" gradientUnits="userSpaceOnUse">
<stop stop-color="#586FED"/>
<stop offset="1" stop-color="#4DEDFF"/>
</linearGradient>
<linearGradient id="paint5_linear" x1="56.6996" y1="39.1181" x2="46.854" y2="23.1674" gradientUnits="userSpaceOnUse">
<stop stop-color="#586FED"/>
<stop offset="1" stop-color="#4DEDFF"/>
</linearGradient>
<linearGradient id="paint6_linear" x1="97.9512" y1="10580" x2="75.4181" y2="10571.5" gradientUnits="userSpaceOnUse">
<stop stop-color="#CC7FED"/>
<stop offset="1" stop-color="#792BFF"/>
</linearGradient>
<linearGradient id="paint7_linear" x1="7136.23" y1="-9178.55" x2="7140.86" y2="-9202.57" gradientUnits="userSpaceOnUse">
<stop stop-color="#CC7FED"/>
<stop offset="1" stop-color="#792BFF"/>
</linearGradient>
<linearGradient id="paint8_linear" x1="85.1045" y1="70.0249" x2="54.9463" y2="53.074" gradientUnits="userSpaceOnUse">
<stop stop-color="#CC7FED"/>
<stop offset="1" stop-color="#792BFF"/>
</linearGradient>
<linearGradient id="paint9_linear" x1="93.1767" y1="54.8336" x2="82.5772" y2="48.7353" gradientUnits="userSpaceOnUse">
<stop stop-color="#CC7FED"/>
<stop offset="1" stop-color="#792BFF"/>
</linearGradient>
<linearGradient id="paint10_linear" x1="90.3022" y1="39.1181" x2="80.4566" y2="23.1674" gradientUnits="userSpaceOnUse">
<stop stop-color="#CC7FED"/>
<stop offset="1" stop-color="#792BFF"/>
</linearGradient>
<linearGradient id="paint11_linear" x1="131.553" y1="10560.5" x2="109.02" y2="10552.1" gradientUnits="userSpaceOnUse">
<stop stop-color="#CC7FED"/>
<stop offset="1" stop-color="#792BFF"/>
</linearGradient>
<linearGradient id="paint12_linear" x1="7155.6" y1="-9161.67" x2="7160.25" y2="-9185.7" gradientUnits="userSpaceOnUse">
<stop stop-color="#CC7FED"/>
<stop offset="1" stop-color="#792BFF"/>
</linearGradient>
<linearGradient id="paint13_linear" x1="118.706" y1="70.0268" x2="88.5478" y2="53.076" gradientUnits="userSpaceOnUse">
<stop stop-color="#CC7FED"/>
<stop offset="1" stop-color="#792BFF"/>
</linearGradient>
<linearGradient id="paint14_linear" x1="126.778" y1="54.8336" x2="116.179" y2="48.7353" gradientUnits="userSpaceOnUse">
<stop stop-color="#CC7FED"/>
<stop offset="1" stop-color="#792BFF"/>
</linearGradient>
<linearGradient id="paint15_linear" x1="123.904" y1="39.1201" x2="114.058" y2="23.1693" gradientUnits="userSpaceOnUse">
<stop stop-color="#CC7FED"/>
<stop offset="1" stop-color="#792BFF"/>
</linearGradient>
<linearGradient id="paint16_linear" x1="80.9932" y1="10618.6" x2="58.4601" y2="10610.2" gradientUnits="userSpaceOnUse">
<stop stop-color="#CC7FED"/>
<stop offset="1" stop-color="#792BFF"/>
</linearGradient>
<linearGradient id="paint17_linear" x1="7097.18" y1="-9161.76" x2="7101.82" y2="-9185.78" gradientUnits="userSpaceOnUse">
<stop stop-color="#CC7FED"/>
<stop offset="1" stop-color="#792BFF"/>
</linearGradient>
<linearGradient id="paint18_linear" x1="68.1455" y1="99.269" x2="37.9873" y2="82.3182" gradientUnits="userSpaceOnUse">
<stop stop-color="#CC7FED"/>
<stop offset="1" stop-color="#792BFF"/>
</linearGradient>
<linearGradient id="paint19_linear" x1="76.2187" y1="84.0852" x2="65.6173" y2="77.988" gradientUnits="userSpaceOnUse">
<stop stop-color="#CC7FED"/>
<stop offset="1" stop-color="#792BFF"/>
</linearGradient>
<linearGradient id="paint20_linear" x1="73.3432" y1="68.3623" x2="63.4976" y2="52.4115" gradientUnits="userSpaceOnUse">
<stop stop-color="#CC7FED"/>
<stop offset="1" stop-color="#792BFF"/>
</linearGradient>
<linearGradient id="paint21_linear" x1="114.595" y1="10599.2" x2="92.0616" y2="10590.7" gradientUnits="userSpaceOnUse">
<stop stop-color="#CC7FED"/>
<stop offset="1" stop-color="#792BFF"/>
</linearGradient>
<linearGradient id="paint22_linear" x1="7116.64" y1="-9144.88" x2="7121.28" y2="-9168.9" gradientUnits="userSpaceOnUse">
<stop stop-color="#CC7FED"/>
<stop offset="1" stop-color="#792BFF"/>
</linearGradient>
<linearGradient id="paint23_linear" x1="101.748" y1="99.271" x2="71.5898" y2="82.3201" gradientUnits="userSpaceOnUse">
<stop stop-color="#CC7FED"/>
<stop offset="1" stop-color="#792BFF"/>
</linearGradient>
<linearGradient id="paint24_linear" x1="109.82" y1="84.0852" x2="99.2189" y2="77.988" gradientUnits="userSpaceOnUse">
<stop stop-color="#CC7FED"/>
<stop offset="1" stop-color="#792BFF"/>
</linearGradient>
<linearGradient id="paint25_linear" x1="106.946" y1="68.3642" x2="97.1001" y2="52.4135" gradientUnits="userSpaceOnUse">
<stop stop-color="#CC7FED"/>
<stop offset="1" stop-color="#792BFF"/>
</linearGradient>
<linearGradient id="paint26_linear" x1="10445.9" y1="1.00045" x2="10445.9" y2="17.924" gradientUnits="userSpaceOnUse">
<stop stop-color="#4557FF"/>
<stop offset="1" stop-color="#00FFC3"/>
</linearGradient>
<linearGradient id="paint27_linear" x1="10440.1" y1="14.0241" x2="10451.8" y2="14.0241" gradientUnits="userSpaceOnUse">
<stop stop-color="#696DCF"/>
<stop offset="1" stop-color="#94F4FF"/>
</linearGradient>
<clipPath id="clip0">
<rect width="101" height="93" fill="white" transform="translate(31)"/>
</clipPath>
</defs>
</svg>
